<mxfile host="65bd71144e">
    <diagram name="‫עמוד-1‬" id="f_844LAGfMIvVAP64b0K">
        <mxGraphModel dx="2548" dy="836" grid="1" gridSize="10" guides="1" tooltips="1" connect="1" arrows="1" fold="1" page="1" pageScale="1" pageWidth="827" pageHeight="1169" math="0" shadow="0">
            <root>
                <mxCell id="0"/>
                <mxCell id="1" parent="0"/>
                <mxCell id="IKI2ISTDLDX6Rg6g9GQi-32" style="edgeStyle=orthogonalEdgeStyle;rounded=0;orthogonalLoop=1;jettySize=auto;html=1;exitX=0.5;exitY=1;exitDx=0;exitDy=0;entryX=0.5;entryY=0;entryDx=0;entryDy=0;" parent="1" source="IKI2ISTDLDX6Rg6g9GQi-1" target="IKI2ISTDLDX6Rg6g9GQi-3" edge="1">
                    <mxGeometry relative="1" as="geometry"/>
                </mxCell>
                <mxCell id="IKI2ISTDLDX6Rg6g9GQi-33" style="edgeStyle=orthogonalEdgeStyle;rounded=0;orthogonalLoop=1;jettySize=auto;html=1;exitX=1;exitY=0.5;exitDx=0;exitDy=0;" parent="1" source="IKI2ISTDLDX6Rg6g9GQi-1" target="IKI2ISTDLDX6Rg6g9GQi-4" edge="1">
                    <mxGeometry relative="1" as="geometry"/>
                </mxCell>
                <mxCell id="IKI2ISTDLDX6Rg6g9GQi-34" style="edgeStyle=orthogonalEdgeStyle;rounded=0;orthogonalLoop=1;jettySize=auto;html=1;exitX=0;exitY=0.5;exitDx=0;exitDy=0;entryX=0.5;entryY=0;entryDx=0;entryDy=0;" parent="1" source="IKI2ISTDLDX6Rg6g9GQi-1" target="IKI2ISTDLDX6Rg6g9GQi-2" edge="1">
                    <mxGeometry relative="1" as="geometry"/>
                </mxCell>
                <mxCell id="IKI2ISTDLDX6Rg6g9GQi-1" value="App.tsx" style="rounded=0;whiteSpace=wrap;html=1;" parent="1" vertex="1">
                    <mxGeometry x="340" y="20" width="120" height="60" as="geometry"/>
                </mxCell>
                <mxCell id="IKI2ISTDLDX6Rg6g9GQi-2" value="Home" style="rounded=0;whiteSpace=wrap;html=1;" parent="1" vertex="1">
                    <mxGeometry x="-140" y="120" width="120" height="60" as="geometry"/>
                </mxCell>
                <mxCell id="IKI2ISTDLDX6Rg6g9GQi-11" value="" style="edgeStyle=orthogonalEdgeStyle;rounded=0;orthogonalLoop=1;jettySize=auto;html=1;" parent="1" source="IKI2ISTDLDX6Rg6g9GQi-3" target="IKI2ISTDLDX6Rg6g9GQi-10" edge="1">
                    <mxGeometry relative="1" as="geometry"/>
                </mxCell>
                <mxCell id="IKI2ISTDLDX6Rg6g9GQi-30" style="edgeStyle=orthogonalEdgeStyle;rounded=0;orthogonalLoop=1;jettySize=auto;html=1;exitX=0.5;exitY=1;exitDx=0;exitDy=0;" parent="1" source="IKI2ISTDLDX6Rg6g9GQi-3" target="IKI2ISTDLDX6Rg6g9GQi-5" edge="1">
                    <mxGeometry relative="1" as="geometry">
                        <Array as="points">
                            <mxPoint x="400" y="200"/>
                            <mxPoint x="490" y="200"/>
                        </Array>
                    </mxGeometry>
                </mxCell>
                <mxCell id="IKI2ISTDLDX6Rg6g9GQi-31" style="edgeStyle=orthogonalEdgeStyle;rounded=0;orthogonalLoop=1;jettySize=auto;html=1;exitX=0.25;exitY=1;exitDx=0;exitDy=0;" parent="1" source="IKI2ISTDLDX6Rg6g9GQi-3" target="IKI2ISTDLDX6Rg6g9GQi-6" edge="1">
                    <mxGeometry relative="1" as="geometry">
                        <Array as="points">
                            <mxPoint x="370" y="200"/>
                            <mxPoint x="260" y="200"/>
                        </Array>
                    </mxGeometry>
                </mxCell>
                <mxCell id="IKI2ISTDLDX6Rg6g9GQi-44" value="" style="edgeStyle=orthogonalEdgeStyle;rounded=0;orthogonalLoop=1;jettySize=auto;html=1;" parent="1" source="IKI2ISTDLDX6Rg6g9GQi-3" target="IKI2ISTDLDX6Rg6g9GQi-43" edge="1">
                    <mxGeometry relative="1" as="geometry"/>
                </mxCell>
                <mxCell id="IKI2ISTDLDX6Rg6g9GQi-3" value="ChatPage.tsx" style="rounded=0;whiteSpace=wrap;html=1;" parent="1" vertex="1">
                    <mxGeometry x="340" y="120" width="120" height="60" as="geometry"/>
                </mxCell>
                <mxCell id="IKI2ISTDLDX6Rg6g9GQi-52" value="" style="edgeStyle=orthogonalEdgeStyle;rounded=0;orthogonalLoop=1;jettySize=auto;html=1;" parent="1" source="IKI2ISTDLDX6Rg6g9GQi-4" target="IKI2ISTDLDX6Rg6g9GQi-51" edge="1">
                    <mxGeometry relative="1" as="geometry"/>
                </mxCell>
                <mxCell id="IKI2ISTDLDX6Rg6g9GQi-4" value="Auth" style="rounded=0;whiteSpace=wrap;html=1;" parent="1" vertex="1">
                    <mxGeometry x="850" y="130" width="120" height="60" as="geometry"/>
                </mxCell>
                <mxCell id="IKI2ISTDLDX6Rg6g9GQi-5" value="Navigation.tsx" style="rounded=0;whiteSpace=wrap;html=1;" parent="1" vertex="1">
                    <mxGeometry x="430" y="210" width="120" height="60" as="geometry"/>
                </mxCell>
                <mxCell id="IKI2ISTDLDX6Rg6g9GQi-13" value="" style="edgeStyle=orthogonalEdgeStyle;rounded=0;orthogonalLoop=1;jettySize=auto;html=1;" parent="1" source="IKI2ISTDLDX6Rg6g9GQi-6" target="IKI2ISTDLDX6Rg6g9GQi-12" edge="1">
                    <mxGeometry relative="1" as="geometry"/>
                </mxCell>
                <mxCell id="IKI2ISTDLDX6Rg6g9GQi-6" value="DynamicList.tsx" style="rounded=0;whiteSpace=wrap;html=1;" parent="1" vertex="1">
                    <mxGeometry x="200" y="210" width="120" height="60" as="geometry"/>
                </mxCell>
                <mxCell id="IKI2ISTDLDX6Rg6g9GQi-21" value="" style="edgeStyle=orthogonalEdgeStyle;rounded=0;orthogonalLoop=1;jettySize=auto;html=1;" parent="1" source="IKI2ISTDLDX6Rg6g9GQi-10" target="IKI2ISTDLDX6Rg6g9GQi-20" edge="1">
                    <mxGeometry relative="1" as="geometry"/>
                </mxCell>
                <mxCell id="IKI2ISTDLDX6Rg6g9GQi-10" value="Messenger" style="whiteSpace=wrap;html=1;rounded=0;" parent="1" vertex="1">
                    <mxGeometry x="550" y="290" width="120" height="60" as="geometry"/>
                </mxCell>
                <mxCell id="IKI2ISTDLDX6Rg6g9GQi-15" value="" style="edgeStyle=orthogonalEdgeStyle;rounded=0;orthogonalLoop=1;jettySize=auto;html=1;" parent="1" source="IKI2ISTDLDX6Rg6g9GQi-12" target="IKI2ISTDLDX6Rg6g9GQi-14" edge="1">
                    <mxGeometry relative="1" as="geometry"/>
                </mxCell>
                <mxCell id="IKI2ISTDLDX6Rg6g9GQi-12" value="Messages/Videos/&lt;br&gt;Story/Settings/&lt;br&gt;Profile" style="whiteSpace=wrap;html=1;rounded=0;" parent="1" vertex="1">
                    <mxGeometry x="200" y="300" width="120" height="60" as="geometry"/>
                </mxCell>
                <mxCell id="IKI2ISTDLDX6Rg6g9GQi-17" value="" style="edgeStyle=orthogonalEdgeStyle;rounded=0;orthogonalLoop=1;jettySize=auto;html=1;" parent="1" source="IKI2ISTDLDX6Rg6g9GQi-14" target="IKI2ISTDLDX6Rg6g9GQi-16" edge="1">
                    <mxGeometry relative="1" as="geometry"/>
                </mxCell>
                <mxCell id="IKI2ISTDLDX6Rg6g9GQi-14" value="MessagesList" style="whiteSpace=wrap;html=1;rounded=0;" parent="1" vertex="1">
                    <mxGeometry x="200" y="380" width="120" height="60" as="geometry"/>
                </mxCell>
                <mxCell id="IKI2ISTDLDX6Rg6g9GQi-16" value="MessagePreview" style="whiteSpace=wrap;html=1;rounded=0;" parent="1" vertex="1">
                    <mxGeometry x="200" y="460" width="120" height="60" as="geometry"/>
                </mxCell>
                <mxCell id="IKI2ISTDLDX6Rg6g9GQi-24" value="" style="edgeStyle=orthogonalEdgeStyle;rounded=0;orthogonalLoop=1;jettySize=auto;html=1;" parent="1" source="IKI2ISTDLDX6Rg6g9GQi-20" target="IKI2ISTDLDX6Rg6g9GQi-23" edge="1">
                    <mxGeometry relative="1" as="geometry">
                        <Array as="points">
                            <mxPoint x="580" y="480"/>
                            <mxPoint x="750" y="480"/>
                        </Array>
                    </mxGeometry>
                </mxCell>
                <mxCell id="IKI2ISTDLDX6Rg6g9GQi-26" value="" style="edgeStyle=orthogonalEdgeStyle;rounded=0;orthogonalLoop=1;jettySize=auto;html=1;" parent="1" source="IKI2ISTDLDX6Rg6g9GQi-20" target="IKI2ISTDLDX6Rg6g9GQi-25" edge="1">
                    <mxGeometry relative="1" as="geometry"/>
                </mxCell>
                <mxCell id="IKI2ISTDLDX6Rg6g9GQi-29" style="edgeStyle=orthogonalEdgeStyle;rounded=0;orthogonalLoop=1;jettySize=auto;html=1;exitX=0.25;exitY=1;exitDx=0;exitDy=0;entryX=0.5;entryY=0;entryDx=0;entryDy=0;" parent="1" source="IKI2ISTDLDX6Rg6g9GQi-20" target="IKI2ISTDLDX6Rg6g9GQi-27" edge="1">
                    <mxGeometry relative="1" as="geometry">
                        <Array as="points">
                            <mxPoint x="520" y="480"/>
                            <mxPoint x="390" y="480"/>
                        </Array>
                    </mxGeometry>
                </mxCell>
                <mxCell id="IKI2ISTDLDX6Rg6g9GQi-20" value="Index.tsx" style="whiteSpace=wrap;html=1;rounded=0;" parent="1" vertex="1">
                    <mxGeometry x="490" y="390" width="120" height="60" as="geometry"/>
                </mxCell>
                <mxCell id="IKI2ISTDLDX6Rg6g9GQi-36" value="" style="edgeStyle=orthogonalEdgeStyle;rounded=0;orthogonalLoop=1;jettySize=auto;html=1;" parent="1" source="IKI2ISTDLDX6Rg6g9GQi-23" target="IKI2ISTDLDX6Rg6g9GQi-35" edge="1">
                    <mxGeometry relative="1" as="geometry"/>
                </mxCell>
                <mxCell id="IKI2ISTDLDX6Rg6g9GQi-23" value="Chat.tsx" style="whiteSpace=wrap;html=1;rounded=0;" parent="1" vertex="1">
                    <mxGeometry x="690" y="540" width="120" height="60" as="geometry"/>
                </mxCell>
                <mxCell id="IKI2ISTDLDX6Rg6g9GQi-38" value="" style="edgeStyle=orthogonalEdgeStyle;rounded=0;orthogonalLoop=1;jettySize=auto;html=1;" parent="1" source="IKI2ISTDLDX6Rg6g9GQi-25" target="IKI2ISTDLDX6Rg6g9GQi-37" edge="1">
                    <mxGeometry relative="1" as="geometry">
                        <Array as="points">
                            <mxPoint x="580" y="615"/>
                            <mxPoint x="610" y="615"/>
                        </Array>
                    </mxGeometry>
                </mxCell>
                <mxCell id="IKI2ISTDLDX6Rg6g9GQi-42" style="edgeStyle=orthogonalEdgeStyle;rounded=0;orthogonalLoop=1;jettySize=auto;html=1;exitX=0.25;exitY=1;exitDx=0;exitDy=0;" parent="1" source="IKI2ISTDLDX6Rg6g9GQi-25" target="IKI2ISTDLDX6Rg6g9GQi-41" edge="1">
                    <mxGeometry relative="1" as="geometry">
                        <Array as="points">
                            <mxPoint x="530" y="615"/>
                            <mxPoint x="474" y="615"/>
                        </Array>
                    </mxGeometry>
                </mxCell>
                <mxCell id="IKI2ISTDLDX6Rg6g9GQi-25" value="Info.tsx" style="whiteSpace=wrap;html=1;rounded=0;" parent="1" vertex="1">
                    <mxGeometry x="500" y="540" width="120" height="60" as="geometry"/>
                </mxCell>
                <mxCell id="IKI2ISTDLDX6Rg6g9GQi-27" value="FileEditor.tsx" style="whiteSpace=wrap;html=1;rounded=0;" parent="1" vertex="1">
                    <mxGeometry x="320" y="550" width="120" height="60" as="geometry"/>
                </mxCell>
                <mxCell id="IKI2ISTDLDX6Rg6g9GQi-35" value="ChatMessages.tsx" style="whiteSpace=wrap;html=1;rounded=0;" parent="1" vertex="1">
                    <mxGeometry x="690" y="640" width="120" height="60" as="geometry"/>
                </mxCell>
                <mxCell id="IKI2ISTDLDX6Rg6g9GQi-37" value="ChatInfo.tsx" style="whiteSpace=wrap;html=1;rounded=0;" parent="1" vertex="1">
                    <mxGeometry x="550" y="640" width="120" height="60" as="geometry"/>
                </mxCell>
                <mxCell id="IKI2ISTDLDX6Rg6g9GQi-41" value="GroupInfo.tsx" style="rounded=0;whiteSpace=wrap;html=1;" parent="1" vertex="1">
                    <mxGeometry x="413.5" y="640" width="120" height="60" as="geometry"/>
                </mxCell>
                <mxCell id="IKI2ISTDLDX6Rg6g9GQi-47" value="" style="edgeStyle=orthogonalEdgeStyle;rounded=0;orthogonalLoop=1;jettySize=auto;html=1;" parent="1" source="IKI2ISTDLDX6Rg6g9GQi-43" target="IKI2ISTDLDX6Rg6g9GQi-46" edge="1">
                    <mxGeometry relative="1" as="geometry"/>
                </mxCell>
                <mxCell id="IKI2ISTDLDX6Rg6g9GQi-48" value="" style="edgeStyle=orthogonalEdgeStyle;rounded=0;orthogonalLoop=1;jettySize=auto;html=1;" parent="1" source="IKI2ISTDLDX6Rg6g9GQi-43" target="IKI2ISTDLDX6Rg6g9GQi-46" edge="1">
                    <mxGeometry relative="1" as="geometry"/>
                </mxCell>
                <mxCell id="IKI2ISTDLDX6Rg6g9GQi-50" value="" style="edgeStyle=orthogonalEdgeStyle;rounded=0;orthogonalLoop=1;jettySize=auto;html=1;" parent="1" source="IKI2ISTDLDX6Rg6g9GQi-43" target="IKI2ISTDLDX6Rg6g9GQi-49" edge="1">
                    <mxGeometry relative="1" as="geometry">
                        <Array as="points">
                            <mxPoint x="30" y="370"/>
                            <mxPoint x="-70" y="370"/>
                        </Array>
                    </mxGeometry>
                </mxCell>
                <mxCell id="IKI2ISTDLDX6Rg6g9GQi-43" value="SearchUsers" style="whiteSpace=wrap;html=1;rounded=0;" parent="1" vertex="1">
                    <mxGeometry x="-20" y="290" width="120" height="60" as="geometry"/>
                </mxCell>
                <mxCell id="IKI2ISTDLDX6Rg6g9GQi-46" value="UsersToMessage" style="whiteSpace=wrap;html=1;rounded=0;" parent="1" vertex="1">
                    <mxGeometry x="50" y="390" width="120" height="60" as="geometry"/>
                </mxCell>
                <mxCell id="IKI2ISTDLDX6Rg6g9GQi-49" value="UsersToGroup" style="whiteSpace=wrap;html=1;rounded=0;" parent="1" vertex="1">
                    <mxGeometry x="-130" y="390" width="120" height="60" as="geometry"/>
                </mxCell>
                <mxCell id="IKI2ISTDLDX6Rg6g9GQi-55" value="" style="edgeStyle=orthogonalEdgeStyle;rounded=0;orthogonalLoop=1;jettySize=auto;html=1;" parent="1" source="IKI2ISTDLDX6Rg6g9GQi-51" target="IKI2ISTDLDX6Rg6g9GQi-54" edge="1">
                    <mxGeometry relative="1" as="geometry">
                        <Array as="points">
                            <mxPoint x="800" y="280"/>
                        </Array>
                    </mxGeometry>
                </mxCell>
                <mxCell id="IKI2ISTDLDX6Rg6g9GQi-56" style="edgeStyle=orthogonalEdgeStyle;rounded=0;orthogonalLoop=1;jettySize=auto;html=1;exitX=0.5;exitY=1;exitDx=0;exitDy=0;entryX=0.75;entryY=0;entryDx=0;entryDy=0;" parent="1" source="IKI2ISTDLDX6Rg6g9GQi-51" target="IKI2ISTDLDX6Rg6g9GQi-53" edge="1">
                    <mxGeometry relative="1" as="geometry">
                        <Array as="points">
                            <mxPoint x="980" y="280"/>
                        </Array>
                    </mxGeometry>
                </mxCell>
                <mxCell id="IKI2ISTDLDX6Rg6g9GQi-51" value="Form.tsx" style="whiteSpace=wrap;html=1;rounded=0;" parent="1" vertex="1">
                    <mxGeometry x="850" y="220" width="120" height="60" as="geometry"/>
                </mxCell>
                <mxCell id="IKI2ISTDLDX6Rg6g9GQi-53" value="Login.tsx" style="whiteSpace=wrap;html=1;rounded=0;" parent="1" vertex="1">
                    <mxGeometry x="890" y="300" width="120" height="60" as="geometry"/>
                </mxCell>
                <mxCell id="IKI2ISTDLDX6Rg6g9GQi-54" value="Signup.tsx" style="whiteSpace=wrap;html=1;rounded=0;" parent="1" vertex="1">
                    <mxGeometry x="740" y="300" width="120" height="60" as="geometry"/>
                </mxCell>
            </root>
        </mxGraphModel>
    </diagram>
</mxfile>